<svg width="711" height="915" viewBox="0 0 711 915" fill="none" xmlns="http://www.w3.org/2000/svg">
<path fill-rule="evenodd" clip-rule="evenodd" d="M693.413 252.147C719.673 326.863 713.65 405.51 691.519 481.281C671.004 551.519 617.917 605.045 572.709 665.413C512.749 745.478 483.702 854.034 384.252 891.582C278.163 931.637 146.773 916.999 48.5657 863.307C-47.2032 810.948 -85.0504 707.754 -123.865 613.785C-158.754 529.32 -176.508 441.739 -162.379 352.616C-147.923 261.433 -117.851 168.59 -43.193 104.927C31.025 41.6378 136.535 23.3032 238.309 10.9323C339.015 -1.30887 447.206 -11.6019 534.561 34.6985C620.064 80.017 663.677 167.539 693.413 252.147Z" fill="#00D276"/>
</svg>
