<svg width="796" height="265" viewBox="0 0 796 265" fill="none" xmlns="http://www.w3.org/2000/svg">
<path fill-rule="evenodd" clip-rule="evenodd" d="M495.4 700.327C415.122 701.719 339.218 695.052 264.85 673.443C181.597 649.251 88.598 630.02 41.5532 568.45C-7.41157 504.366 -5.68455 420.281 12.1574 342.727C29.8452 265.843 61.4836 180.84 140.87 136.745C217.201 94.3481 314.419 144.896 401.992 126.198C499.318 105.417 538.205 38.0009 654.5 10.5014C740.705 -9.88305 871.072 -3.54334 898 74.4999C922.858 146.544 821.884 347.727 809.969 423.85C797.122 505.927 851.579 603.081 781.72 664.48C712.027 725.733 593.549 698.625 495.4 700.327Z" fill="#00D276"/>
</svg>
