<svg width="251" height="529" viewBox="0 0 251 529" fill="none" xmlns="http://www.w3.org/2000/svg">
<path fill-rule="evenodd" clip-rule="evenodd" d="M446.113 191.932C469.117 227.652 537.103 239.548 531.901 282.055C526.594 325.417 460.31 328.484 425.994 356.327C401.326 376.342 389.526 410.227 359.892 421.619C328.64 433.634 295.457 423.242 262.466 419.192C217.213 413.637 158.985 461.441 130.5 426.5C102.395 392.026 110 299 134.897 262.714C158.386 228.482 178.926 204.567 199.019 172.596C223.764 133.224 223.826 74.2872 265.94 54.2077C308.171 34.0729 363.231 48.9509 399.771 76.882C433.495 102.661 423.182 156.324 446.113 191.932Z" fill="#00D276"/>
</svg>
