<svg width="203" height="379" viewBox="0 0 203 379" fill="none" xmlns="http://www.w3.org/2000/svg">
<path fill-rule="evenodd" clip-rule="evenodd" d="M396.722 359.567C376.559 395.448 353.964 427.308 325.154 454.62C292.902 485.196 260.322 521.368 220.902 526.248C179.874 531.327 143.115 508.799 113.418 480.832C83.9773 453.106 54.5543 417.106 55.5911 370.566C56.588 325.819 104.117 295.886 118.509 252.298C134.505 203.855 114.74 169.2 132.673 110.625C145.965 67.2054 182.513 11.1627 224.014 19.4476C262.325 27.0955 325.209 123.845 355.807 148.819C388.799 175.747 445.881 176.798 454.967 223.601C464.032 270.291 421.372 315.698 396.722 359.567Z" fill="#00D276"/>
</svg>
