<svg width="910" height="1318" viewBox="0 0 910 1318" fill="none" xmlns="http://www.w3.org/2000/svg">
<path fill-rule="evenodd" clip-rule="evenodd" d="M-106.322 963.581C-169.882 915.957 -126.733 828.348 -150.728 752.227C-174.719 676.118 -87.4513 608.913 -73.4883 529.813C-55.3057 426.81 -120.108 308.812 -57.5864 224.585C6.84681 137.782 131.757 91.6857 236.658 111.994C338.892 131.786 376.031 256.063 454.792 323.778C525.013 384.151 623.15 407.098 671.795 486.105C729.486 579.806 788.236 696.42 748.146 800.237C708.118 903.897 581.103 938.707 479.721 983.506C397.806 1019.7 254.413 1002.58 167.679 983.506C89.1518 966.234 -42.1264 1011.68 -106.322 963.581Z" fill="#00D276"/>
</svg>
