<svg width="1334" height="1008" viewBox="0 0 1334 1008" fill="none" xmlns="http://www.w3.org/2000/svg">
<path fill-rule="evenodd" clip-rule="evenodd" d="M1093.16 629.208C1007.26 719.521 1020.43 921.57 895.653 936.175C768.364 951.075 713.72 764.239 610.584 685.695C536.443 629.232 431.676 619.059 378.677 542.467C322.786 461.695 329.431 359.905 318.131 263.051C302.63 130.199 220.635 -22.0492 300.516 -127.45C379.33 -231.441 544.154 -216.538 675.871 -208.972C785.943 -202.649 872.122 -123.723 977.176 -88.5823C1106.55 -45.3054 1274.61 -85.9426 1361.01 20.211C1447.66 126.658 1443.37 293.922 1389.05 417.43C1338.91 531.419 1178.79 539.179 1093.16 629.208Z" fill="#00D276"/>
</svg>
