<svg width="251" height="44" viewBox="0 0 251 44" fill="none" xmlns="http://www.w3.org/2000/svg">
<g opacity="0.9">
<path d="M26.5697 18.9721L26.587 18.9376C30.4232 11.0226 38.6268 0.931458 38.7099 0.831267L39.006 0.468075V33.5279L38.7945 33.4685C38.7835 33.4653 37.6819 33.1601 36.1257 33.1601C33.2126 33.1601 29.2463 34.1808 26.8878 39.0463L26.5713 39.7006V18.9721H26.5697Z" fill="#FFA259"/>
<path d="M38.8383 0.936159V33.1929V33.3072C38.8383 33.3072 37.7242 32.9926 36.1242 32.9926C33.374 32.9926 29.1852 33.9209 26.7374 38.9727V19.0097C30.6081 11.021 38.8383 0.936159 38.8383 0.936159ZM39.1721 0L38.5798 0.724819C38.4967 0.826575 30.2806 10.9318 26.4365 18.8641L26.4036 18.933V19.0097V38.9727V40.4255L27.0367 39.1183C29.356 34.331 33.258 33.326 36.1242 33.326C37.6599 33.326 38.7365 33.625 38.7475 33.6281L39.1721 33.7471V33.3072V33.1929V0.936159V0Z" fill="white"/>
<path d="M26.5697 18.9721L26.587 18.9376C29.4767 12.9763 41.7139 4.07652 42.2342 3.7008L42.5225 3.49259L42.499 3.84639C42.4802 4.13757 40.5527 32.908 40.5417 33.1679L40.5339 33.326L40.3741 33.3276C40.2675 33.3276 29.7117 33.4074 26.8878 39.2357L26.5713 39.8901V18.9721H26.5697Z" fill="#FFE153"/>
<path d="M42.3313 3.83543C42.3313 3.83543 40.3741 33.0755 40.3741 33.1616C40.3741 33.1616 29.6412 33.171 26.7374 39.1637V19.0097C29.6412 13.0186 42.3313 3.83543 42.3313 3.83543ZM42.7121 3.14975L42.137 3.56617C41.6168 3.94345 29.345 12.8667 26.4381 18.8656L26.4052 18.9345V19.0112V39.1653V40.618L27.0383 39.3109C28.48 36.3349 32.0075 34.9134 34.7122 34.2434C37.6865 33.5076 40.349 33.4951 40.3756 33.4951H40.7079V33.171C40.7392 32.6137 42.6463 4.14696 42.6651 3.85891L42.7121 3.14975Z" fill="white"/>
<path d="M26.5697 18.9721L26.587 18.9377C28.5254 14.9363 45.0502 6.92414 45.7522 6.58599L46.0359 6.44823L45.9889 6.75976C45.9497 7.01807 42.1527 32.4556 42.0743 33.0254V33.1554L41.9364 33.1804C41.8048 33.2039 28.762 35.5553 26.8847 39.4283L26.5681 40.0826V18.9721H26.5697Z" fill="#9DD288"/>
<path d="M45.8244 6.73628C45.8244 6.73628 41.9082 32.9597 41.9082 33.016C41.9082 33.016 28.6712 35.3611 26.7358 39.3562V19.0097C28.6727 15.0161 45.8244 6.73628 45.8244 6.73628ZM46.2475 6.16174L45.6802 6.4357C44.975 6.77541 28.4016 14.8126 26.4365 18.8656L26.4036 18.9345V19.0112V39.3562V40.809L27.0367 39.5018C27.7858 37.9551 30.5893 36.4006 35.1401 35.0089C38.6315 33.9412 41.9333 33.351 41.9662 33.3448L42.242 33.2963V33.038C42.3549 32.227 46.1158 7.04154 46.1534 6.78481L46.2475 6.16174Z" fill="white"/>
<path d="M26.5697 18.9721L26.587 18.9377C27.5742 16.901 48.3787 9.77957 49.2641 9.47744L49.5555 9.37881L49.4803 9.67625C49.4223 9.90325 43.784 32.1801 43.6116 32.8892V32.9941L43.4925 33.0301C39.1345 34.3263 27.6541 38.035 26.8878 39.6192L26.5713 40.2736V18.9721H26.5697Z" fill="#00C2B4"/>
<path d="M49.3189 9.63555C49.3189 9.63555 43.4455 32.8407 43.4455 32.8689C43.4455 32.8689 27.7059 37.5481 26.7374 39.5457V19.0097C27.7043 17.0121 49.3189 9.63555 49.3189 9.63555ZM49.7922 9.12207L49.2108 9.32089C49.1559 9.33967 43.7386 11.1916 38.2726 13.2628C35.0586 14.4807 32.4556 15.5359 30.5376 16.4C27.2451 17.8809 26.6167 18.4962 26.4381 18.8656L26.4052 18.9345V19.0112V39.5472V41L27.0383 39.6928C27.2028 39.3547 28.3609 38.2964 35.5647 35.7744C39.567 34.3733 43.5019 33.2023 43.5411 33.1898L43.7793 33.1194V32.9096C44.0269 31.9045 49.5853 9.94395 49.6433 9.71852L49.7922 9.12207Z" fill="white"/>
<path d="M26.5697 18.8797L53.083 12.2969L45.1098 32.8532L26.5697 39.9809V18.8797Z" fill="#7A7E7B"/>
<path d="M52.8119 12.5364L44.9813 32.7249L26.7374 39.7382V19.0112L52.8119 12.5364ZM53.3541 12.0574L52.7304 12.2123L26.6559 18.6872L26.4036 18.7498V19.0097V39.7367V40.222L26.8565 40.0482L45.1004 33.0348L45.2383 32.9816L45.2915 32.8438L53.1222 12.6554L53.3541 12.0574Z" fill="white"/>
<path d="M26.4678 39.0463C24.111 34.1823 20.1431 33.1601 17.2299 33.1601C15.6707 33.1601 14.5722 33.4653 14.5612 33.4685L14.3497 33.5279V0.468075L14.6458 0.831267C14.7289 0.933023 22.9325 11.0226 26.7687 18.9376L26.786 18.9721V39.6991L26.4678 39.0463Z" fill="#FFA259"/>
<path d="M14.5158 0.936159C14.5158 0.936159 22.7461 11.021 26.6167 19.0112V38.9743C24.169 33.9225 19.9802 32.9941 17.23 32.9941C15.63 32.9941 14.5158 33.3088 14.5158 33.3088V33.1945V0.936159ZM14.1836 0V0.936159V33.1929V33.3072V33.7471L14.6082 33.6266C14.6192 33.6234 15.7021 33.3244 17.2315 33.3244C20.0961 33.3244 23.9997 34.3295 26.319 39.1167L26.9521 40.4239V38.9711V19.0097V18.933L26.9192 18.8641C23.0736 10.9318 14.8574 0.826575 14.7743 0.724819L14.1836 0Z" fill="white"/>
<path d="M26.4678 39.2373C23.644 33.409 13.0866 33.3291 12.9801 33.3291H12.8139V33.1632C12.803 32.9096 10.8755 4.13757 10.8567 3.84639L10.8332 3.49259L11.1215 3.7008C11.6418 4.07652 23.879 12.9763 26.7687 18.9376L26.786 18.9721V39.8901L26.4678 39.2373Z" fill="#FFE153"/>
<path d="M11.0228 3.83543C11.0228 3.83543 23.7145 13.017 26.6183 19.0097V39.1637C23.7145 33.171 12.9816 33.1616 12.9816 33.1616C12.9801 33.0755 11.0228 3.83543 11.0228 3.83543ZM10.6436 3.14975L10.6906 3.85891C10.7094 4.14696 12.6149 32.6106 12.6478 33.171V33.4951H12.9816C13.0083 33.4951 15.6707 33.5076 18.645 34.2434C21.3498 34.9118 24.8773 36.3349 26.319 39.3109L26.9521 40.618V39.1653V19.0097V18.933L26.9192 18.8641C24.0107 12.8667 11.7389 3.94345 11.2187 3.56617L10.6436 3.14975Z" fill="white"/>
<path d="M26.4679 39.4283C24.5905 35.5553 11.5478 33.2039 11.4161 33.1804L11.2782 33.1554V33.0254C11.2014 32.4572 7.40286 7.01807 7.36525 6.75976L7.31824 6.44823L7.60188 6.58599C8.30393 6.9257 24.8287 14.9363 26.7672 18.9377L26.7844 18.9721V40.0811L26.4679 39.4283Z" fill="#9DD288"/>
<path d="M7.5298 6.73628C7.5298 6.73628 24.6814 15.0161 26.6183 19.0112V39.3562C24.683 35.3611 11.4459 33.016 11.4459 33.016C11.4459 32.9581 7.5298 6.73628 7.5298 6.73628ZM7.10669 6.16174L7.19915 6.78481C7.23676 7.04154 10.9977 32.2255 11.1106 33.038V33.2963L11.3864 33.3448C11.4193 33.351 14.7211 33.9412 18.2125 35.0089C22.7649 36.4006 25.5668 37.9551 26.3159 39.5018L26.949 40.809V39.3562V19.0097V18.933L26.9161 18.8641C24.9525 14.811 8.37759 6.77541 7.6724 6.43414L7.10669 6.16174Z" fill="white"/>
<path d="M26.4678 39.6192C25.7 38.035 14.2212 34.3248 9.86314 33.0301L9.74405 32.9941V32.8892C9.57167 32.1801 3.93334 9.90481 3.87536 9.67625L3.80014 9.37881L4.09162 9.47744C4.97701 9.77957 25.783 16.901 26.7687 18.9377L26.786 18.9721V40.2721L26.4678 39.6192Z" fill="#00C2B4"/>
<path d="M4.03677 9.63555C4.03677 9.63555 25.6498 17.0121 26.6183 19.0097V39.5457C25.6498 37.5481 9.91016 32.8689 9.91016 32.8689C9.91016 32.8407 4.03677 9.63555 4.03677 9.63555ZM3.56195 9.12207L3.71239 9.71695C3.7688 9.94238 9.32721 31.903 9.57638 32.908V33.1178L9.81457 33.1882C9.85375 33.1992 13.7902 34.3733 17.7925 35.7729C24.9948 38.2933 26.1544 39.3515 26.3174 39.6897L26.9505 40.9969V39.5441V19.0097V18.933L26.9176 18.8641C26.7374 18.4931 26.1106 17.8794 22.8181 16.3984C20.8985 15.5359 18.2956 14.4807 15.0831 13.2612C9.61712 11.1885 4.19975 9.33811 4.1449 9.31932L3.56195 9.12207Z" fill="white"/>
<path d="M8.24592 32.8532L0.271088 12.2969L26.7844 18.8797V39.9809L8.24592 32.8532Z" fill="#4D4E4C"/>
<path d="M0.543774 12.5364L26.6183 19.0112V39.7382L8.37444 32.7249L0.543774 12.5364ZM0 12.0574L0.231927 12.6554L8.06259 32.8438L8.11587 32.9816L8.25377 33.0348L26.4976 40.0482L26.9505 40.222V39.7367V19.0097V18.7498L26.6982 18.6872L0.623695 12.2123L0 12.0574Z" fill="white"/>
</g>
<path opacity="0.8" d="M74.328 23.984V32.944L77.112 33.232V34H68.248V33.232L71.032 32.944V13.712L68.248 13.328V12.624H83.768L83.8 17.168H82.968L81.88 13.776L74.328 13.68V22.832H80.984L81.976 20.464H82.616V26.416H81.944L80.984 23.984H74.328ZM102.158 26.192C102.158 28.56 101.443 30.512 100.014 32.048C98.5847 33.584 96.6327 34.352 94.158 34.352C91.7047 34.352 89.7633 33.584 88.334 32.048C86.9047 30.512 86.19 28.56 86.19 26.192C86.19 23.824 86.9047 21.872 88.334 20.336C89.7633 18.8 91.7047 18.032 94.158 18.032C96.6327 18.032 98.5847 18.8 100.014 20.336C101.443 21.872 102.158 23.824 102.158 26.192ZM89.678 26.192C89.678 31.12 91.1713 33.584 94.158 33.584C97.166 33.584 98.67 31.12 98.67 26.192C98.67 23.8027 98.3287 21.9787 97.646 20.72C96.9633 19.4613 95.8113 18.832 94.19 18.832C92.5687 18.832 91.406 19.4613 90.702 20.72C90.0193 21.9787 89.678 23.8027 89.678 26.192ZM111.818 34H104.458V33.232L106.57 33.072V11.024L103.722 10.896V10.16L109.706 9.488V33.072L111.818 33.232V34ZM124.272 18.16C127.685 18.16 129.392 19.8027 129.392 23.088C129.392 25.456 129.317 28.784 129.168 33.072L131.44 33.232V34H124.304V33.232L126.032 33.104C126.181 27.472 126.256 24.0587 126.256 22.864C126.256 21.648 126.032 20.7413 125.584 20.144C125.136 19.5467 124.357 19.248 123.248 19.248C122.16 19.248 121.136 19.7707 120.176 20.816C119.216 21.8613 118.736 22.8213 118.736 23.696V33.072L120.848 33.232V34H113.488V33.232L115.6 33.072V11.024L112.784 10.896L112.752 10.16L118.736 9.488C118.608 16.8053 118.533 20.7093 118.512 21.2H118.768C119.344 20.2187 120.112 19.472 121.072 18.96C122.053 18.4267 123.12 18.16 124.272 18.16ZM136.51 30.544C136.51 31.9307 137.075 32.752 138.206 33.008C138.462 33.072 138.707 33.104 138.942 33.104C139.752 33.104 140.595 32.7627 141.47 32.08C142.344 31.376 142.803 30.4373 142.846 29.264V26.512C138.622 26.5547 136.51 27.8987 136.51 30.544ZM137.79 34.384C136.574 34.384 135.528 34.0533 134.654 33.392C133.8 32.7093 133.374 31.76 133.374 30.544C133.395 28.9013 134.216 27.6747 135.838 26.864C137.48 26.0533 139.816 25.648 142.846 25.648V22.896C142.846 20.1867 141.864 18.832 139.902 18.832C138.899 18.832 138.088 19.248 137.47 20.08C137.043 20.656 136.83 21.3707 136.83 22.224C136.83 22.5867 136.872 22.9707 136.958 23.376C136.659 23.5893 136.35 23.696 136.03 23.696C135.731 23.696 135.432 23.632 135.134 23.504C134.451 23.248 134.11 22.7573 134.11 22.032C134.11 21.0507 134.462 20.24 135.166 19.6C136.318 18.5547 137.907 18.032 139.934 18.032C141.96 18.032 143.432 18.4693 144.35 19.344C145.267 20.1973 145.726 21.552 145.726 23.408V33.104L148.414 33.232L148.446 33.968L143.102 34.352L142.814 31.504C141.832 33.424 140.158 34.384 137.79 34.384Z" fill="#202020"/>
<path opacity="0.8" d="M155.719 31.6094H158.75C161.365 31.6094 163.354 30.9271 164.719 29.5625C166.083 28.1875 166.766 26.1875 166.766 23.5625C166.766 20.75 166.062 18.7083 164.656 17.4375C163.25 16.1562 161.13 15.5156 158.297 15.5156H155.719V31.6094ZM151.484 35V12.1094H158.109C160.109 12.1094 161.901 12.3385 163.484 12.7969C165.068 13.2552 166.427 13.9479 167.562 14.875C168.708 15.7917 169.583 16.9792 170.188 18.4375C170.802 19.8854 171.109 21.5625 171.109 23.4688C171.109 27.1667 169.995 30.0156 167.766 32.0156C165.536 34.0052 162.448 35 158.5 35H151.484ZM174.828 35V17.8281H178.922V35H174.828ZM174.828 15.3281V11.8281H178.938V15.3281H174.828ZM186.641 42.6875L186.406 39.375H188.484C190.891 39.375 192.573 39.0521 193.531 38.4062C194.49 37.7708 194.969 36.599 194.969 34.8906C194.969 34.1927 194.938 33.4375 194.875 32.625C194.604 33 194.344 33.3125 194.094 33.5625C193.854 33.8021 193.547 34.0417 193.172 34.2812C192.807 34.5208 192.365 34.7031 191.844 34.8281C191.333 34.9427 190.75 35 190.094 35C187.823 35 185.953 34.1823 184.484 32.5469C183.026 30.9115 182.297 28.8021 182.297 26.2188C182.297 24.8438 182.5 23.5938 182.906 22.4688C183.312 21.3333 183.865 20.401 184.562 19.6719C185.26 18.9427 186.062 18.3854 186.969 18C187.885 17.6042 188.859 17.4062 189.891 17.4062C192.193 17.4062 193.906 18.2448 195.031 19.9219L195.312 17.8281H198.969V33.7812C198.969 34.6354 198.927 35.401 198.844 36.0781C198.76 36.7656 198.615 37.4219 198.406 38.0469C198.198 38.6823 197.922 39.2344 197.578 39.7031C197.245 40.1719 196.823 40.599 196.312 40.9844C195.802 41.3698 195.198 41.6823 194.5 41.9219C193.812 42.1719 193.01 42.3594 192.094 42.4844C191.177 42.6198 190.146 42.6875 189 42.6875H186.641ZM190.75 32.1406C193.573 32.1406 195 30.25 195.031 26.4688V25.875C195.01 24.1771 194.656 22.8646 193.969 21.9375C193.281 21.0104 192.276 20.5417 190.953 20.5312C189.453 20.5312 188.318 21.0469 187.547 22.0781C186.776 23.099 186.391 24.4792 186.391 26.2188C186.391 27.8958 186.776 29.3021 187.547 30.4375C188.328 31.5729 189.396 32.1406 190.75 32.1406ZM203.109 35V17.8281H207.203V35H203.109ZM203.109 15.3281V11.8281H207.219V15.3281H203.109ZM218.344 35.2344C217.177 35.2344 216.203 35.099 215.422 34.8281C214.651 34.5469 214.047 34.1094 213.609 33.5156C213.172 32.9219 212.859 32.224 212.672 31.4219C212.495 30.6094 212.406 29.6094 212.406 28.4219V20.3125H209.594L209.75 18.0938L212.688 17.8281L214 13.1719L216.5 13.1562V17.8281H220.766V20.3125H216.5V28.5C216.5 29.8021 216.688 30.7292 217.062 31.2812C217.438 31.8333 218.13 32.1094 219.141 32.1094C219.734 32.1094 220.37 32.0573 221.047 31.9531L221.156 34.8906C221.135 34.8906 221.005 34.9167 220.766 34.9688C220.536 35.0104 220.312 35.0469 220.094 35.0781C219.885 35.1198 219.615 35.1562 219.281 35.1875C218.948 35.2188 218.635 35.2344 218.344 35.2344ZM228.547 35.3281C226.953 35.3281 225.661 34.8906 224.672 34.0156C223.693 33.1302 223.203 31.8594 223.203 30.2031C223.203 28.4219 223.786 27.1042 224.953 26.25C226.12 25.3854 227.88 24.8385 230.234 24.6094C230.557 24.5677 230.906 24.526 231.281 24.4844C231.656 24.4427 232.078 24.401 232.547 24.3594C233.016 24.3177 233.385 24.2812 233.656 24.25V23.3438C233.656 22.3021 233.417 21.5469 232.938 21.0781C232.458 20.599 231.729 20.3594 230.75 20.3594C229.354 20.3594 227.63 20.75 225.578 21.5312C225.568 21.5 225.396 21.026 225.062 20.1094C224.729 19.1927 224.557 18.724 224.547 18.7031C226.568 17.8385 228.755 17.4062 231.109 17.4062C233.422 17.4062 235.104 17.9115 236.156 18.9219C237.208 19.9219 237.734 21.5469 237.734 23.7969V35H234.703C234.693 34.9583 234.578 34.6094 234.359 33.9531C234.141 33.2969 234.031 32.9479 234.031 32.9062C233.177 33.7396 232.339 34.3542 231.516 34.75C230.703 35.1354 229.714 35.3281 228.547 35.3281ZM229.656 32.4219C230.604 32.4219 231.427 32.1979 232.125 31.75C232.833 31.2917 233.339 30.7396 233.641 30.0938V26.7812C233.609 26.7812 233.333 26.8021 232.812 26.8438C232.302 26.8854 232.026 26.9062 231.984 26.9062C230.328 27.0521 229.115 27.3646 228.344 27.8438C227.573 28.3229 227.188 29.0938 227.188 30.1562C227.188 30.8854 227.401 31.4479 227.828 31.8438C228.255 32.2292 228.865 32.4219 229.656 32.4219ZM247.875 35.2344C246.698 35.2344 245.719 35.099 244.938 34.8281C244.167 34.5469 243.557 34.1042 243.109 33.5C242.661 32.8958 242.349 32.1771 242.172 31.3438C241.995 30.5104 241.906 29.474 241.906 28.2344V11.5L246 11.2344V28.1562C246 29.6979 246.182 30.7448 246.547 31.2969C246.911 31.8385 247.62 32.1094 248.672 32.1094C249.193 32.1094 249.854 32.0521 250.656 31.9375L250.766 34.8594C250.755 34.8594 250.625 34.8854 250.375 34.9375C250.135 34.9896 249.901 35.0312 249.672 35.0625C249.453 35.1042 249.172 35.1406 248.828 35.1719C248.484 35.2135 248.167 35.2344 247.875 35.2344Z" fill="#202020"/>
</svg>
