<svg width="175" height="230" viewBox="0 0 175 230" fill="none" xmlns="http://www.w3.org/2000/svg">
<path fill-rule="evenodd" clip-rule="evenodd" d="M0.812883 232.688C7.73282 175.946 86.4683 163.123 126.764 122.576C171.531 77.5298 175.491 1.04121 239.001 0.612954C304.38 0.17209 310.908 79.8971 365.024 116.586C413.44 149.411 502.424 148.277 520.442 203.925C539.135 261.66 473.737 277.39 450.454 333.43C433.336 374.631 459.445 432.787 425.35 461.565C391.189 490.398 339.187 467.709 294.563 465.011C257.842 462.791 221.798 462.612 188.375 447.24C151.762 430.401 122.656 404.087 96.1326 373.747C57.8455 329.95 -6.22886 290.43 0.812883 232.688Z" fill="#00D276"/>
</svg>
