<svg width="202" height="300" viewBox="0 0 202 300" fill="none" xmlns="http://www.w3.org/2000/svg">
<path fill-rule="evenodd" clip-rule="evenodd" d="M-86.5372 258.468C-143.136 250.457 -154.44 171.489 -194.204 130.42C-238.379 84.794 -314.777 79.3617 -313.982 15.8552C-313.164 -49.5206 -233.328 -54.5116 -195.604 -107.911C-161.852 -155.687 -161.273 -244.676 -105.288 -261.618C-47.2042 -279.196 -32.7364 -213.507 22.8451 -189.15C63.709 -171.242 122.356 -196.225 150.473 -161.582C178.643 -126.873 154.956 -75.3167 151.4 -30.7536C148.473 5.91841 147.6 41.9522 131.587 75.073C114.046 111.355 87.1763 139.949 56.3311 165.883C11.8052 203.319 -28.9421 266.621 -86.5372 258.468Z" fill="#00D276"/>
</svg>
