<svg width="102" height="103" viewBox="0 0 102 103" fill="none" xmlns="http://www.w3.org/2000/svg">
<path fill-rule="evenodd" clip-rule="evenodd" d="M19.5024 71.5857C15.7328 65.4479 15.43 58.032 15.6561 50.8202C15.8683 44.0509 16.8931 37.2194 20.7532 31.6887C24.5651 26.227 30.6886 23.371 36.7254 20.6324C43.2692 17.6638 49.9044 14.354 57.0327 15.2306C64.9068 16.199 73.0138 19.3106 77.8256 25.6869C82.6172 32.0365 81.6851 40.6525 82.2222 48.6106C82.781 56.8896 86.9535 67.144 81.0095 72.8592C74.7992 78.8304 64.1573 71.5133 55.9125 73.9075C48.6324 76.0215 44.5994 86.1115 37.0342 85.6291C29.41 85.1429 23.5323 78.1473 19.5024 71.5857Z" fill="#00D276"/>
</svg>
