<?xml version="1.0" encoding="utf-8"?><svg viewBox="0 0 24 24" xmlns="http://www.w3.org/2000/svg" xmlns:xlink="http://www.w3.org/1999/xlink"><style>:root>svg{display:none}:root>svg:target{display:block}</style><svg viewBox="0 0 24 23" id="cart" xmlns="http://www.w3.org/2000/svg"><path d="M9 22a1 1 0 100-2 1 1 0 000 2zM20 22a1 1 0 100-2 1 1 0 000 2zM1 1h4l2.68 13.39a2 2 0 002 1.61h9.72a2 2 0 002-1.61L23 6H6"/></svg><svg viewBox="0 0 24 24" id="facebook" xmlns="http://www.w3.org/2000/svg"><path d="M23.625 12C23.625 5.578 18.422.375 12 .375S.375 5.578.375 12c0 5.813 4.219 10.64 9.797 11.484v-8.109H7.219V12h2.953V9.469c0-2.906 1.734-4.547 4.36-4.547 1.312 0 2.624.234 2.624.234v2.86h-1.453c-1.453 0-1.922.89-1.922 1.828V12h3.235l-.516 3.375h-2.719v8.11c5.578-.844 9.844-5.672 9.844-11.485z"/></svg><svg viewBox="0 0 22 22" id="instagram" xmlns="http://www.w3.org/2000/svg"><path d="M11.5 5.61c-3 0-5.39 2.437-5.39 5.39 0 3 2.39 5.39 5.39 5.39 2.953 0 5.39-2.39 5.39-5.39 0-2.953-2.437-5.39-5.39-5.39zm0 8.906A3.51 3.51 0 017.984 11c0-1.922 1.547-3.469 3.516-3.469A3.46 3.46 0 0114.969 11c0 1.969-1.547 3.516-3.469 3.516zm6.844-9.094a1.26 1.26 0 00-1.266-1.266 1.26 1.26 0 00-1.265 1.266 1.26 1.26 0 001.265 1.266 1.26 1.26 0 001.266-1.266zm3.562 1.266C21.813 5 21.438 3.5 20.22 2.28 19 1.062 17.5.687 15.812.594 14.079.5 8.875.5 7.142.594 5.453.688 4 1.063 2.734 2.28 1.516 3.5 1.141 5 1.047 6.687c-.094 1.735-.094 6.938 0 8.672.094 1.688.469 3.141 1.687 4.407 1.266 1.218 2.72 1.593 4.407 1.687 1.734.094 6.937.094 8.671 0 1.688-.094 3.188-.469 4.407-1.687 1.218-1.266 1.593-2.72 1.687-4.407.094-1.734.094-6.937 0-8.671zm-2.25 10.5c-.328.937-1.078 1.64-1.968 2.015-1.407.563-4.688.422-6.188.422-1.547 0-4.828.14-6.188-.422a3.554 3.554 0 01-2.015-2.015c-.563-1.36-.422-4.641-.422-6.188 0-1.5-.14-4.781.422-6.188a3.616 3.616 0 012.015-1.968c1.36-.563 4.641-.422 6.188-.422 1.5 0 4.781-.14 6.188.422.89.328 1.593 1.078 1.968 1.969.563 1.406.422 4.687.422 6.187 0 1.547.14 4.828-.422 6.188z"/></svg><svg viewBox="0 0 24 20" id="twitter" xmlns="http://www.w3.org/2000/svg"><path d="M21.516 5.125c.937-.703 1.78-1.547 2.437-2.531a9.225 9.225 0 01-2.812.75A4.809 4.809 0 0023.297.625c-.938.563-2.016.984-3.094 1.219a4.922 4.922 0 00-3.61-1.547 4.921 4.921 0 00-4.921 4.922c0 .375.047.75.14 1.125A14.28 14.28 0 011.642 1.187c-.422.704-.657 1.547-.657 2.485 0 1.687.844 3.187 2.204 4.078-.797-.047-1.594-.234-2.25-.61v.048c0 2.39 1.687 4.359 3.937 4.828-.375.093-.844.187-1.266.187-.328 0-.609-.047-.937-.094.61 1.97 2.437 3.375 4.594 3.422a9.895 9.895 0 01-6.094 2.11c-.422 0-.797-.047-1.172-.094 2.156 1.406 4.734 2.203 7.547 2.203 9.047 0 13.969-7.453 13.969-13.969v-.656z"/></svg><svg viewBox="0 0 21 22" id="whatsapp" xmlns="http://www.w3.org/2000/svg"><path d="M17.813 3.594A10.24 10.24 0 0010.453.5C4.734.5.047 5.188.047 10.906c0 1.875.515 3.656 1.406 5.203L0 21.5l5.484-1.406c1.547.797 3.235 1.265 4.97 1.265C16.218 21.36 21 16.672 21 10.953c0-2.812-1.219-5.39-3.188-7.36zm-7.36 15.984c-1.547 0-3.047-.422-4.406-1.219l-.281-.187-3.282.89.891-3.187-.234-.328c-.844-1.406-1.313-3-1.313-4.64 0-4.735 3.89-8.626 8.672-8.626 2.297 0 4.453.89 6.094 2.531 1.64 1.641 2.625 3.797 2.625 6.141 0 4.735-3.985 8.625-8.766 8.625zm4.781-6.469a58.26 58.26 0 00-1.78-.843c-.235-.094-.423-.141-.61.14-.14.235-.656.844-.797 1.031-.188.141-.328.188-.563.047-1.546-.75-2.53-1.359-3.562-3.093-.281-.47.281-.422.75-1.407.094-.187.047-.328 0-.468-.047-.141-.61-1.407-.797-1.922-.234-.516-.422-.469-.61-.469h-.468a.88.88 0 00-.703.328c-.235.281-.89.89-.89 2.156 0 1.313.89 2.532 1.03 2.72.141.14 1.829 2.765 4.454 3.89 1.64.75 2.296.797 3.14.656.469-.047 1.5-.61 1.735-1.219.234-.61.234-1.125.14-1.219-.047-.14-.234-.187-.469-.328z"/></svg></svg>