<svg width="248" height="211" viewBox="0 0 248 211" fill="none" xmlns="http://www.w3.org/2000/svg">
<path d="M31.9034 95.6818L2.00049 69.5715" stroke="#00D276" stroke-width="3"/>
<path d="M215.546 96.8534L243.229 68.3999" stroke="#00D276" stroke-width="3"/>
<path d="M81.8914 40.7829L73.417 2" stroke="#00D276" stroke-width="3"/>
<path d="M172.558 38.7545L188.328 2.32324" stroke="#00D276" stroke-width="3"/>
<path d="M185.372 136.035V208.095H70.0757V136.035" stroke="#00D276" stroke-width="4" stroke-linecap="round" stroke-linejoin="round"/>
<path d="M199.784 100.005H55.6631V136.035H199.784V100.005Z" stroke="#00D276" stroke-width="4" stroke-linecap="round" stroke-linejoin="round"/>
<path d="M127.724 208.095V100.005" stroke="#00D276" stroke-width="4" stroke-linecap="round" stroke-linejoin="round"/>
<path d="M127.723 100.005H95.2959C90.518 100.005 85.9358 98.1066 82.5573 94.7281C79.1788 91.3496 77.2808 86.7674 77.2808 81.9895C77.2808 77.2116 79.1788 72.6294 82.5573 69.2509C85.9358 65.8724 90.518 63.9744 95.2959 63.9744C120.517 63.9744 127.723 100.005 127.723 100.005Z" stroke="#00D276" stroke-width="4" stroke-linecap="round" stroke-linejoin="round"/>
<path d="M127.724 100.005H160.151C164.929 100.005 169.511 98.1066 172.889 94.7281C176.268 91.3496 178.166 86.7674 178.166 81.9895C178.166 77.2116 176.268 72.6294 172.889 69.2509C169.511 65.8724 164.929 63.9744 160.151 63.9744C134.93 63.9744 127.724 100.005 127.724 100.005Z" stroke="#00D276" stroke-width="4" stroke-linecap="round" stroke-linejoin="round"/>
</svg>
