<svg width="43" height="32" viewBox="0 0 43 32" fill="none" xmlns="http://www.w3.org/2000/svg">
<path d="M42.7714 22.4508C42.7714 25.0092 41.8868 27.129 40.1175 28.8103C38.4219 30.4184 36.5052 31.2225 34.3673 31.2225C32.1557 31.2225 30.2021 30.4549 28.5066 28.9199C26.8847 27.3118 26.0738 25.1554 26.0738 22.4508C26.0738 17.1878 27.2533 12.3999 29.6124 8.08716C32.0451 3.77442 34.6622 1.10637 37.4636 0.0830078L39.0117 1.06982C34.1462 4.4323 31.7134 9.47602 31.7134 16.201C31.7134 17.8091 31.824 18.9421 32.0451 19.6C32.6349 19.0883 33.8513 18.467 35.6943 17.736C37.5373 17.005 38.9748 16.6396 40.0069 16.6396C41.8499 16.6396 42.7714 18.5766 42.7714 22.4508ZM17.0062 22.4508C17.0062 25.0092 16.1215 27.129 14.3523 28.8103C12.6567 30.4184 10.74 31.2225 8.60207 31.2225C6.39046 31.2225 4.43687 30.4549 2.7413 28.9199C1.11946 27.3118 0.308533 25.1554 0.308533 22.4508C0.308533 17.1878 1.48806 12.3999 3.84711 8.08716C6.27988 3.77442 8.89695 1.10637 11.6983 0.0830078L13.2464 1.06982C8.38091 4.4323 5.94814 9.47602 5.94814 16.201C5.94814 17.8091 6.05872 18.9421 6.27988 19.6C6.86964 19.0883 8.08603 18.467 9.92903 17.736C11.772 17.005 13.2096 16.6396 14.2417 16.6396C16.0847 16.6396 17.0062 18.5766 17.0062 22.4508Z" fill="white"/>
</svg>
