<svg width="102" height="101" viewBox="0 0 102 101" fill="none" xmlns="http://www.w3.org/2000/svg">
<path fill-rule="evenodd" clip-rule="evenodd" d="M19.5024 70.157C15.7328 64.0763 15.43 56.7293 15.6561 49.5847C15.8683 42.8783 16.8931 36.1104 20.7532 30.6311C24.5651 25.2202 30.6886 22.3908 36.7254 19.6777C43.2692 16.7367 49.9043 13.4577 57.0327 14.3261C64.9068 15.2855 73.0138 18.3681 77.8255 24.6851C82.6172 30.9757 81.6851 39.5115 82.2222 47.3956C82.781 55.5976 86.9535 65.7566 81.0094 71.4186C74.7992 77.3343 64.1573 70.0853 55.9125 72.4572C48.6324 74.5516 44.5994 84.5477 37.0342 84.0698C29.41 83.5881 23.5323 76.6576 19.5024 70.157Z" fill="#00D276"/>
<path d="M70.7714 54.4508C70.7714 57.0092 69.8868 59.129 68.1175 60.8103C66.4219 62.4184 64.5052 63.2225 62.3673 63.2225C60.1557 63.2225 58.2021 62.4549 56.5066 60.9199C54.8847 59.3118 54.0738 57.1554 54.0738 54.4508C54.0738 49.1878 55.2533 44.3999 57.6124 40.0872C60.0451 35.7744 62.6622 33.1064 65.4636 32.083L67.0117 33.0698C62.1462 36.4323 59.7134 41.476 59.7134 48.201C59.7134 49.8091 59.824 50.9421 60.0451 51.6C60.6349 51.0883 61.8513 50.467 63.6943 49.736C65.5373 49.005 66.9748 48.6396 68.0069 48.6396C69.8499 48.6396 70.7714 50.5766 70.7714 54.4508ZM45.0062 54.4508C45.0062 57.0092 44.1215 59.129 42.3523 60.8103C40.6567 62.4184 38.74 63.2225 36.6021 63.2225C34.3905 63.2225 32.4369 62.4549 30.7413 60.9199C29.1195 59.3118 28.3085 57.1554 28.3085 54.4508C28.3085 49.1878 29.4881 44.3999 31.8471 40.0872C34.2799 35.7744 36.8969 33.1064 39.6983 32.083L41.2464 33.0698C36.3809 36.4323 33.9481 41.476 33.9481 48.201C33.9481 49.8091 34.0587 50.9421 34.2799 51.6C34.8696 51.0883 36.086 50.467 37.929 49.736C39.772 49.005 41.2096 48.6396 42.2417 48.6396C44.0847 48.6396 45.0062 50.5766 45.0062 54.4508Z" fill="white"/>
</svg>
